<svg xmlns="http://www.w3.org/2000/svg" version="1.1" xmlns:xlink="http://www.w3.org/1999/xlink" xmlns:svgjs="http://svgjs.dev/svgjs" width="2000" height="1247" viewBox="0 0 2000 1247"><g transform="matrix(1,0,0,1,-1.2121212121212466,0.504858299595071)"><svg viewBox="0 0 396 247" data-background-color="#ffffff" preserveAspectRatio="xMidYMid meet" height="1247" width="2000" xmlns="http://www.w3.org/2000/svg" xmlns:xlink="http://www.w3.org/1999/xlink"><g id="tight-bounds" transform="matrix(1,0,0,1,0.2400000000000091,-0.09999999999999432)"><svg viewBox="0 0 395.52 247.2" height="247.2" width="395.52"><g><svg></svg></g><g><svg viewBox="0 0 395.52 247.2" height="247.2" width="395.52"><g transform="matrix(1,0,0,1,75.54432,74.88548737581779)"><svg viewBox="0 0 244.43135999999998 97.42902524836441" height="97.42902524836441" width="244.43135999999998"><g><svg viewBox="0 0 244.43135999999998 97.42902524836441" height="97.42902524836441" width="244.43135999999998"><g><svg viewBox="0 0 244.43136 97.42902524836443" height="97.42902524836441" width="244.43135999999998"><g><svg viewBox="0 0 244.43136 97.42902524836443" height="97.42902524836443" width="244.43136"><g id="textblocktransform"><svg viewBox="0 0 244.43136 97.42902524836443" height="97.42902524836443" width="244.43136" id="textblock"><g><svg viewBox="0 0 244.43136 97.42902524836443" height="97.42902524836443" width="244.43136"><g transform="matrix(1,0,0,1,0,0)"><svg width="244.43136" viewBox="2.29 -32.03 100.75 40.160000000000004" height="97.42902524836443" data-palette-color="#3d3839"><path d="M11.28 0.29L11.28 0.29Q9.28 0.29 8.11-0.34 6.93-0.98 6.05-2.25L6.05-2.25 5.44-2.25 5.44 0 2.29 0 2.29-31.69 5.44-31.69 5.44-21.53 6.2-21.53Q7.08-22.83 8.24-23.45 9.4-24.07 11.43-24.07L11.43-24.07Q14.23-24.07 15.54-22.86 16.85-21.66 16.92-18.82L16.92-18.82Q17.02-16.67 17.04-14.21 17.07-11.74 17.04-9.35 17.02-6.96 16.92-4.96L16.92-4.96Q16.85-2.15 15.47-0.93 14.09 0.29 11.28 0.29ZM10.5-2.37L10.5-2.37Q12.23-2.37 12.99-2.93 13.75-3.49 13.79-4.69L13.79-4.69Q13.96-7.89 13.96-11.66 13.96-15.43 13.79-19.09L13.79-19.09Q13.75-20.31 12.99-20.86 12.23-21.41 10.5-21.41L10.5-21.41Q6.71-21.41 5.44-19.19L5.44-19.19 5.44-4.59Q6.74-2.37 10.5-2.37ZM25-31.69L25 0 21.82 0 21.82-31.69 25-31.69ZM37.35 0.29L37.35 0.29Q33.37 0.29 31.73-1.07 30.1-2.44 29.98-5.62L29.98-5.62Q29.83-7.42 29.78-9.63 29.73-11.84 29.78-14.09 29.83-16.33 29.98-18.16L29.98-18.16Q30.1-21.34 31.75-22.71 33.39-24.07 37.35-24.07L37.35-24.07Q41.35-24.07 42.95-22.71 44.55-21.34 44.67-18.16L44.67-18.16Q44.82-16.36 44.87-14.15 44.92-11.94 44.87-9.7 44.82-7.47 44.67-5.62L44.67-5.62Q44.55-2.47 42.95-1.09 41.35 0.29 37.35 0.29ZM37.35-2.44L37.35-2.44Q39.59-2.44 40.55-2.99 41.5-3.54 41.57-4.81L41.57-4.81Q41.82-8.62 41.82-11.89 41.82-15.16 41.57-18.97L41.57-18.97Q41.5-20.26 40.57-20.8 39.64-21.34 37.35-21.34L37.35-21.34Q35.05-21.34 34.11-20.8 33.17-20.26 33.1-18.97L33.1-18.97Q32.88-15.16 32.87-11.88 32.86-8.59 33.1-4.81L33.1-4.81Q33.15-3.54 34.14-2.99 35.13-2.44 37.35-2.44ZM55.78 6.86L55.78 6.86Q52.46 6.86 50.43 6.03 48.41 5.2 48.28 3.42L48.28 3.42Q48.28 3.22 48.26 2.95 48.23 2.69 48.23 2.39L48.23 2.39Q48.33 1.32 49.32 0.66 50.31 0 51.6-0.15L51.6-0.15 51.6-0.76Q49.19-1.27 49.11-2.86L49.11-2.86Q49.09-3.27 49.11-3.69L49.11-3.69Q49.14-4.52 49.88-5.08 50.63-5.64 51.55-5.74L51.55-5.74 51.55-6.35Q49.02-7.45 48.85-11.21L48.85-11.21Q48.77-12.67 48.74-13.76 48.7-14.84 48.72-15.95 48.75-17.07 48.85-18.58L48.85-18.58Q48.97-21.48 50.54-22.78 52.12-24.07 55.58-24.07L55.58-24.07Q58.12-24.07 59.61-23.49 61.1-22.9 61.76-21.66L61.76-21.66 62.44-21.66Q62.61-23.75 65.59-23.75L65.59-23.75 65.59-21.02 64.74-21.02Q62.57-21.02 62.47-18.51L62.47-18.51 62.42-16.58Q62.47-15.16 62.47-14.01 62.47-12.87 62.32-11.21L62.32-11.21Q62.2-8.25 60.66-6.98 59.12-5.71 55.58-5.71L55.58-5.71Q53.53-5.74 52.6-5.4 51.68-5.05 51.68-4.27L51.68-4.27 51.68-4.08Q51.73-3.37 52.7-3.08 53.68-2.78 55.95-2.73L55.95-2.73Q59.59-2.64 61.53-1.7 63.47-0.76 63.64 1.42L63.64 1.42 63.64 2.69Q63.47 4.98 61.3 5.92 59.12 6.86 55.78 6.86ZM55.58-8.47L55.58-8.47Q57.54-8.47 58.35-9.01 59.17-9.55 59.25-10.77L59.25-10.77Q59.37-12.5 59.37-14.81 59.37-17.11 59.25-19.02L59.25-19.02Q59.17-20.31 58.34-20.83 57.51-21.34 55.58-21.34L55.58-21.34Q53.65-21.34 52.82-20.81 51.99-20.29 51.9-18.99L51.9-18.99Q51.63-14.36 51.9-10.82L51.9-10.82Q51.99-9.62 52.85-9.05 53.7-8.47 55.58-8.47ZM55.85 4.27L55.85 4.27Q57.95 4.27 59.28 3.88 60.61 3.49 60.71 2.49L60.71 2.49Q60.73 2.22 60.72 1.99 60.71 1.76 60.71 1.51L60.71 1.51Q60.61 0.46 59.31 0.16 58-0.15 55.85-0.2L55.85-0.2Q53.78-0.24 52.54 0.12 51.31 0.49 51.19 1.54L51.19 1.54 51.19 2.49Q51.31 3.56 52.56 3.92 53.8 4.27 55.85 4.27ZM71.69-31.69L71.69-28.17 68.54-28.17 68.54-31.69 71.69-31.69ZM71.69-23.75L71.69 0 68.52 0 68.52-23.75 71.69-23.75ZM80.8-21.02L80.8 0 77.67 0 77.67-21.02 75.4-21.02 75.4-23.75 77.67-23.75 77.67-26.61Q77.67-29.52 79.09-30.77 80.51-32.03 83.75-32.03L83.75-32.03Q84.44-32.03 85.28-31.96 86.12-31.88 86.78-31.76L86.78-31.76 86.78-29.13Q85.46-29.2 83.83-29.2L83.83-29.2Q82.17-29.2 81.48-28.66 80.8-28.13 80.8-26.88L80.8-26.88 80.8-23.75 86-23.75 86-21.02 80.8-21.02ZM90.93 8.13L90.93 8.13Q90.15 8.13 89.06 8.06 87.97 7.98 87.27 7.91L87.27 7.91 87.27 5.2Q88.78 5.32 90.83 5.32L90.83 5.32Q93 5.32 93.77 4.8 94.54 4.27 94.81 2.95L94.81 2.95 95.52 0 92.22 0 87.83-23.75 91.05-23.75 92.69-12.43 94.57-2.71 96.05-2.71 98.06-12.43 99.79-23.75 103.04-23.75 97.91 2.71Q97.45 5.59 95.96 6.86 94.47 8.13 90.93 8.13Z" opacity="1" transform="matrix(1,0,0,1,0,0)" fill="#3d3839" class="wordmark-text-0" data-fill-palette-color="primary" id="text-0"></path></svg></g></svg></g></svg></g></svg></g></svg></g></svg></g></svg></g><g><path d="M245.816 0c68.262 0 123.6 55.338 123.6 123.6 0 68.262-55.338 123.6-123.6 123.6-46.401 0-86.83-25.569-107.966-63.385l5.063 0c20.697 35.294 59.032 58.992 102.903 58.992 65.836 0 119.207-53.371 119.207-119.207 0-65.836-53.371-119.207-119.207-119.207-43.871 0-82.206 23.698-102.903 58.992l-5.063 0c21.136-37.817 61.565-63.385 107.966-63.385z" fill="#3d3839" stroke="transparent" data-fill-palette-color="tertiary"></path></g></svg></g><defs></defs></svg><rect width="395.52" height="247.2" fill="none" stroke="none" visibility="hidden"></rect></g></svg></g></svg>